<?xml version="1.0" encoding="UTF-8" standalone="no"?>
<svg
   width="32"
   height="32"
   viewBox="0 0 8.4666665 8.4666669"
   version="1.1"
   id="svg20249"
   inkscape:version="1.4.2 (ebf0e940, 2025-05-08)"
   sodipodi:docname="base-app-icon-blueprint-mac.svg"
   xmlns:inkscape="http://www.inkscape.org/namespaces/inkscape"
   xmlns:sodipodi="http://sodipodi.sourceforge.net/DTD/sodipodi-0.dtd"
   xmlns:xlink="http://www.w3.org/1999/xlink"
   xmlns="http://www.w3.org/2000/svg"
   xmlns:svg="http://www.w3.org/2000/svg"
   xmlns:rdf="http://www.w3.org/1999/02/22-rdf-syntax-ns#"
   xmlns:cc="http://creativecommons.org/ns#"
   xmlns:dc="http://purl.org/dc/elements/1.1/"><defs
   id="defs20243">
  <inkscape:path-effect
     effect="clone_original"
     linkeditem="#rect824-2-2"
     method="bsplinespiro"
     allow_transforms="false"
     id="path-effect29"
     lpeversion="1" />
  <linearGradient
     inkscape:collect="always"
     id="linearGradient9165">
    <stop
       style="stop-color:#ff641b;stop-opacity:1"
       offset="0"
       id="stop9161" />
    <stop
       style="stop-color:#f3c800;stop-opacity:1"
       offset="1"
       id="stop9163" />
  </linearGradient>
  <linearGradient
     inkscape:collect="always"
     xlink:href="#linearGradient9165"
     id="linearGradient1149"
     x1="3"
     y1="29"
     x2="30.5"
     y2="1.5"
     gradientUnits="userSpaceOnUse" />
  <clipPath
     clipPathUnits="userSpaceOnUse"
     id="clipPath976">
    <path
       id="path978"
       style="fill:url(#linearGradient980);fill-opacity:1;fill-rule:evenodd;stroke-width:0.999999"
       d="m 16.03125,2.9980724 a 13.000112,13.000112 0 0 0 -0.152345,0.00197 H 9.0000005 C 5.6759725,3.0000378 3,5.676019 3,9.0000379 v 6.9687311 7.031244 c 0,3.324018 2.6759725,6 6.0000005,6 H 23 c 3.324028,0 6.000001,-2.675982 6.000001,-6 V 16.029317 9.0000379 C 29.000001,5.676019 26.324028,3.0000378 23,3.0000378 h -6.867188 a 13.000112,13.000112 0 0 0 -0.101562,-0.00197 z" />
  </clipPath>
  <linearGradient
     inkscape:collect="always"
     xlink:href="#linearGradient9165"
     id="linearGradient980"
     gradientUnits="userSpaceOnUse"
     gradientTransform="translate(0,7.5590552e-5)"
     x1="3"
     y1="29"
     x2="30.5"
     y2="1.5" />
  <linearGradient
     inkscape:collect="always"
     xlink:href="#linearGradient9209"
     id="linearGradient22086-4"
     gradientUnits="userSpaceOnUse"
     x1="171.45"
     y1="249.37498"
     x2="179.91667"
     y2="240.90831"
     gradientTransform="translate(-161.52709,47.232038)" />
  <linearGradient
     id="linearGradient9209"
     inkscape:collect="always">
    <stop
       id="stop9205"
       offset="0"
       style="stop-color:#0064d9;stop-opacity:1" />
    <stop
       id="stop9207"
       offset="1"
       style="stop-color:#22c8ff;stop-opacity:1" />
  </linearGradient>
  <linearGradient
     inkscape:collect="always"
     xlink:href="#linearGradient9209"
     id="linearGradient1168"
     gradientUnits="userSpaceOnUse"
     x1="3"
     y1="29"
     x2="30.5"
     y2="1.5"
     gradientTransform="matrix(0.26458333,0,0,0.26458333,7.1401709e-5,288.53333)" />
</defs>
<sodipodi:namedview
   id="base"
   pagecolor="#ffffff"
   bordercolor="#666666"
   borderopacity="1.0"
   inkscape:pageopacity="0.0"
   inkscape:pageshadow="2"
   inkscape:zoom="20.336864"
   inkscape:cx="13.915616"
   inkscape:cy="14.923638"
   inkscape:document-units="mm"
   inkscape:current-layer="layer1"
   showgrid="true"
   units="px"
   inkscape:window-width="1800"
   inkscape:window-height="1102"
   inkscape:window-x="0"
   inkscape:window-y="67"
   inkscape:window-maximized="0"
   inkscape:document-rotation="0"
   inkscape:pagecheckerboard="0"
   inkscape:showpageshadow="0"
   inkscape:deskcolor="#d1d1d1">
  <inkscape:grid
     type="xygrid"
     id="grid20794"
     empspacing="4"
     enabled="false"
     originx="0"
     originy="0"
     spacingy="1"
     spacingx="1"
     units="px" />
  <inkscape:grid
     type="xygrid"
     id="grid20796"
     empspacing="1"
     originy="0.13229167"
     originx="0.13229167"
     dotted="true"
     enabled="false"
     spacingy="1"
     spacingx="1"
     units="px" />
</sodipodi:namedview>
<metadata
   id="metadata20246">
  <rdf:RDF>
    <cc:Work
       rdf:about="">
      <dc:format>image/svg+xml</dc:format>
      <dc:type
         rdf:resource="http://purl.org/dc/dcmitype/StillImage" />
    </cc:Work>
  </rdf:RDF>
</metadata>
<g
   inkscape:groupmode="layer"
   id="layer2"
   inkscape:label="Background" />
<g
   inkscape:label="Layer 1"
   inkscape:groupmode="layer"
   id="layer1"
   transform="translate(0,-288.53332)">
  <path
     id="rect288-1"
     style="fill:#ffffff;fill-opacity:1;fill-rule:evenodd;stroke-width:0.264594"
     d="m 4.2416627,289.32648 a 3.4397582,3.4397582 0 0 0 -0.040233,2.4e-4 l -1.8201214,10e-6 c -0.8795175,-10e-6 -1.58756774,0.70804 -1.58756561,1.58754 l -7.1e-7,1.84389 1.2e-7,1.86045 c -7.1e-7,0.87951 0.7080464,1.58756 1.587567,1.58755 l 3.7043217,10e-6 c 0.8795206,-10e-6 1.5875677,-0.70807 1.5875685,-1.58756 l -7.74e-5,-1.84412 1.4e-6,-1.85994 c -2.2e-6,-0.8795 -0.7080492,-1.58754 -1.5875668,-1.58755 h -1.817021 a 3.4397582,3.4397582 0 0 0 -0.026732,-10e-4 z" />
  <path
     id="rect288"
     style="fill:url(#linearGradient1168);fill-opacity:1;fill-rule:evenodd;stroke-width:0.264583"
     d="m 6.483387,289.37689 c -0.1270003,-0.0325 -0.2606093,-0.0499 -0.3980286,-0.0499 l -1.8168447,2e-5 a 3.4396129,3.4396129 0 0 0 -0.026563,-7e-4 l -1.338e-4,5e-4 a 3.4396129,3.4396129 0 0 0 -0.040246,4.5e-4 l -1.8199735,-2.8e-4 c -0.8794805,0 -1.58796204,0.70821 -1.58796142,1.58769 l 3.2304e-4,1.84368 3.628e-5,1.86071 c 5.2e-7,0.87948 0.7078402,1.58733 1.5873233,1.58733 l 0.040112,5e-5 3.6641478,9e-5 c 0.054961,3e-5 0.1092138,-0.003 0.1627205,-0.008 0.8024572,-0.081 1.4247412,-0.75502 1.4247419,-1.57953 l 1.751e-4,-1.31443 -2.594e-4,-0.50618 -1.051e-4,-0.0236 3.292e-4,-1.86008 c -7e-7,-0.74206 -0.5039936,-1.36189 -1.189794,-1.53752 z m -0.3469843,0.52227 c 0.580202,0.14859 1.006995,0.6735 1.0069944,1.30129 l -1.786e-4,1.4562 -0.00281,0.0105 -0.7142923,-0.1914 -1.9654971,-0.53735 c -0.057439,-0.0157 -0.1147588,-0.0257 -0.1718627,-0.0295 l -3.653e-4,-6.3e-4 c -0.3997524,-0.0265 -0.774414,0.22925 -0.8844453,0.63131 l -0.8568136,3.13178 c -0.6875214,-0.0602 -1.223623,-0.63373 -1.223621,-1.3374 l -3.462e-4,-1.57404 3.59e-5,-1.5595 c 8e-7,-0.74405 0.5992458,-1.34348 1.3433038,-1.34348 l 1.5396911,8e-5 a 2.9099713,2.9099713 0 0 1 0.03422,7e-5 l 2.675e-4,-0.001 a 2.9099713,2.9099713 0 0 1 0.022667,0.001 l 1.5365623,-2.2e-4 c 0.1162586,0 0.2290438,0.0145 0.3364887,0.042 z m 0.2897148,2.57658 0.00281,-0.0105 -4.991e-4,-1.3e-4 z" />
</g>

    %3
</svg>
