<?xml version="1.0" encoding="UTF-8" standalone="no"?>
<svg
   inkscape:export-ydpi="192"
   inkscape:export-xdpi="192"
   inkscape:export-filename="/Users/victor/Documents/Apps/theSlate/app-dmg-background@2x.png"
   sodipodi:docname="app-dmg-background.svg"
   inkscape:version="1.4.2 (ebf0e940, 2025-05-08)"
   id="svg8"
   version="1.1"
   viewBox="0 0 158.74999 111.12501"
   height="420"
   width="600"
   xmlns:inkscape="http://www.inkscape.org/namespaces/inkscape"
   xmlns:sodipodi="http://sodipodi.sourceforge.net/DTD/sodipodi-0.dtd"
   xmlns:xlink="http://www.w3.org/1999/xlink"
   xmlns="http://www.w3.org/2000/svg"
   xmlns:svg="http://www.w3.org/2000/svg"
   xmlns:rdf="http://www.w3.org/1999/02/22-rdf-syntax-ns#"
   xmlns:cc="http://creativecommons.org/ns#"
   xmlns:dc="http://purl.org/dc/elements/1.1/">
  <defs
     id="defs2">
    <linearGradient
       inkscape:collect="always"
       id="linearGradient1069">
      <stop
         style="stop-color:#ff6400;stop-opacity:1"
         offset="0"
         id="stop1065" />
      <stop
         style="stop-color:#ffc800;stop-opacity:1"
         offset="1"
         id="stop1067" />
    </linearGradient>
    <linearGradient
       inkscape:collect="always"
       xlink:href="#linearGradient1069"
       id="linearGradient1027"
       x1="800"
       y1="1.2598426e-05"
       x2="1.5118126e-05"
       y2="560.00006"
       gradientUnits="userSpaceOnUse"
       gradientTransform="matrix(-0.26458332,0,0,-0.26458332,211.66666,296.99998)" />
    <linearGradient
       inkscape:collect="always"
       id="linearGradient9165">
      <stop
         style="stop-color:#ff641b;stop-opacity:1"
         offset="0"
         id="stop9161" />
      <stop
         style="stop-color:#f3c800;stop-opacity:1"
         offset="1"
         id="stop9163" />
    </linearGradient>
    <linearGradient
       gradientTransform="matrix(0.75539028,0,0,0.9957418,-22.462337,-10.221195)"
       gradientUnits="userSpaceOnUse"
       y2="134.72221"
       x2="28.222225"
       y1="289.94443"
       x1="28.222225"
       id="linearGradient71"
       xlink:href="#linearGradient9165"
       inkscape:collect="always" />
    <linearGradient
       inkscape:collect="always"
       xlink:href="#linearGradient9165"
       id="linearGradient71-9"
       x1="28.222225"
       y1="289.94443"
       x2="28.222225"
       y2="134.72221"
       gradientUnits="userSpaceOnUse"
       gradientTransform="matrix(0.75539028,0,0,0.61804661,20.175249,120.60822)" />
  </defs>
  <sodipodi:namedview
     borderlayer="true"
     inkscape:document-rotation="0"
     inkscape:window-maximized="0"
     inkscape:window-y="44"
     inkscape:window-x="0"
     inkscape:window-height="950"
     inkscape:window-width="1760"
     units="px"
     showgrid="true"
     inkscape:current-layer="layer1-8"
     inkscape:document-units="mm"
     inkscape:cy="184.94411"
     inkscape:cx="283.04806"
     inkscape:zoom="1.3760914"
     inkscape:pageshadow="2"
     inkscape:pageopacity="0.0"
     borderopacity="1.0"
     bordercolor="#666666"
     pagecolor="#ffffff"
     id="base"
     inkscape:showpageshadow="0"
     inkscape:pagecheckerboard="0"
     inkscape:deskcolor="#d1d1d1">
    <inkscape:grid
       dotted="false"
       opacity="0.1254902"
       color="#3f3fff"
       spacingy="1.3229167"
       spacingx="1.3229166"
       empspacing="4"
       id="grid10"
       type="xygrid"
       originx="0"
       originy="0"
       units="px" />
    <inkscape:grid
       empspacing="1"
       originx="2.6458327"
       originy="2.6458337"
       spacingx="5.2916665"
       spacingy="5.2916665"
       dotted="true"
       id="grid3703"
       type="xygrid"
       units="px" />
  </sodipodi:namedview>
  <metadata
     id="metadata5">
    <rdf:RDF>
      <cc:Work
         rdf:about="">
        <dc:format>image/svg+xml</dc:format>
        <dc:type
           rdf:resource="http://purl.org/dc/dcmitype/StillImage" />
      </cc:Work>
    </rdf:RDF>
  </metadata>
  <g
     transform="translate(0,-185.87498)"
     id="layer1"
     inkscape:groupmode="layer"
     inkscape:label="Layer 1">
    <g
       inkscape:label="Layer 1"
       id="layer1-8"
       transform="matrix(0.74999995,0,0,0.75000004,-1.2e-6,74.249986)">
      <rect
         style="fill:#ffffff;fill-opacity:1;stroke:none;stroke-width:1.35559;stroke-linecap:round;stroke-linejoin:round;stroke-miterlimit:4;stroke-dasharray:none;stroke-opacity:1"
         id="rect4627-6"
         width="211.66669"
         height="148.16666"
         x="5.9211923e-16"
         y="148.83331" />
      <rect
         style="fill:#ffffff;fill-opacity:1;stroke:#000000;stroke-width:1.85208;stroke-linecap:round;stroke-linejoin:round;stroke-miterlimit:4;stroke-dasharray:none;stroke-opacity:1"
         id="applications"
         width="37.041664"
         height="37.041664"
         x="147.28474"
         y="213.25935" />
      <rect
         style="fill:#ffffff;fill-opacity:1;stroke:#000000;stroke-width:1.85208;stroke-linecap:round;stroke-linejoin:round;stroke-miterlimit:4;stroke-dasharray:none;stroke-opacity:1"
         id="app"
         width="37.041664"
         height="37.041664"
         x="26.458336"
         y="212.33331" />
      <path
         style="fill:#000000;fill-opacity:1;stroke:none;stroke-width:0.264583px;stroke-linecap:butt;stroke-linejoin:miter;stroke-opacity:1"
         d="m 89.958341,222.91663 v 15.87501 H 103.1875 v 10.58335 l 18.52084,-18.52084 -18.52084,-18.52083 v 10.58332 z"
         id="path4649"
         inkscape:connector-curvature="0"
         sodipodi:nodetypes="cccccccc" />
      <path
         style="font-size:14.1111px;line-height:1.25;font-family:Commissioner;-inkscape-font-specification:Commissioner;text-align:center;text-anchor:middle;stroke-width:0.352778"
         d="m 27.207235,181.0137 q -1.192388,0 -2.151943,-0.38806 -0.952499,-0.38805 -1.622776,-1.08655 -0.670278,-0.70556 -1.030111,-1.651 -0.352777,-0.9525 -0.352777,-2.07433 0,-1.524 0.627944,-2.69522 0.627944,-1.17828 1.742721,-1.8415 1.114777,-0.66322 2.596442,-0.66322 0.500944,0 0.973666,0.0705 0.472722,0.0706 0.896055,0.1905 0.423333,0.11995 0.783166,0.26106 0.359833,0.14111 0.620888,0.28927 l -0.112888,1.22767 q -0.550333,-0.32456 -1.072444,-0.52211 -0.515055,-0.20461 -1.015999,-0.29633 -0.493889,-0.0917 -0.966611,-0.0917 -1.086554,0 -1.93322,0.49389 -0.846666,0.49389 -1.333499,1.41111 -0.479778,0.91017 -0.479778,2.17311 0,0.83961 0.246945,1.58045 0.253999,0.74083 0.747888,1.30527 0.500944,0.56445 1.234721,0.889 0.740833,0.3175 1.721554,0.3175 0.359833,0 0.719666,-0.0423 0.359834,-0.0494 0.712611,-0.14817 0.352778,-0.0988 0.691444,-0.26105 0.345722,-0.16934 0.677333,-0.39511 l 0.09878,1.21355 q -0.296333,0.1905 -0.656166,0.33161 -0.352777,0.14111 -0.747888,0.23283 -0.388055,0.0847 -0.797277,0.127 -0.409222,0.0423 -0.818444,0.0423 z m 8.043319,0 q -0.867832,0 -1.531054,-0.29634 -0.656166,-0.30338 -1.100666,-0.81844 -0.4445,-0.51506 -0.677333,-1.17828 -0.225777,-0.67027 -0.225777,-1.40405 0,-1.05128 0.423333,-1.86267 0.430388,-0.81844 1.213554,-1.29116 0.790222,-0.47272 1.876777,-0.47272 0.83961,0 1.488721,0.27516 0.64911,0.27517 1.100665,0.76906 0.451556,0.49389 0.684389,1.15711 0.232833,0.65616 0.232833,1.42522 0,1.03716 -0.423333,1.87677 -0.423333,0.83962 -1.206499,1.3335 -0.776111,0.48684 -1.85561,0.48684 z m 0,-1.016 q 0.769055,0 1.277055,-0.381 0.507999,-0.381 0.761999,-0.99483 0.254,-0.61384 0.254,-1.30528 0,-0.79022 -0.282222,-1.37583 -0.282222,-0.58561 -0.797277,-0.91017 -0.515055,-0.32455 -1.22061,-0.32455 -0.762,0 -1.28411,0.34572 -0.522111,0.34572 -0.790222,0.93839 -0.261055,0.59266 -0.261055,1.32644 0,0.69144 0.253999,1.30528 0.261056,0.61383 0.783166,0.99483 0.522111,0.381 1.305277,0.381 z m 5.40455,0.86077 q 0,-0.78316 0,-1.50283 0,-0.71966 0,-1.5875 v -0.70555 q 0,-0.77611 0,-1.5875 0,-0.81139 0,-1.61572 l 1.016,-0.0706 0.03528,1.29822 h 0.127 q 0.225778,-0.3175 0.578555,-0.64205 0.352778,-0.32456 0.832555,-0.53622 0.479778,-0.21872 1.100666,-0.21872 1.114777,0 1.629832,0.64205 0.515055,0.64206 0.515055,1.86267 0,0.45861 0,0.81138 0,0.35278 0,0.762 0,0.83256 0,1.57339 0,0.73378 0,1.51694 h -1.164165 q 0,-0.78316 0,-1.50988 0,-0.73378 0,-1.53106 v -1.32644 q 0,-0.83961 -0.303389,-1.27 -0.296333,-0.43039 -1.079499,-0.43039 -0.472722,0 -0.860777,0.1905 -0.388056,0.1905 -0.705555,0.51506 -0.310445,0.3175 -0.557389,0.70555 v 1.61572 q 0,0.8255 0,1.54517 0,0.71261 0,1.49577 z m 10.738546,0.15523 q -0.698499,0 -1.185332,-0.23989 -0.486833,-0.24695 -0.740833,-0.74083 -0.246944,-0.50095 -0.246944,-1.27706 0,-0.61383 0,-1.21355 0,-0.60678 0,-1.18534 0,-0.58561 0,-1.12183 0,-0.54328 0,-1.03716 0,-0.71967 0,-1.3335 0,-0.61384 0,-1.27706 l 1.150055,-0.254 q 0,0.52211 0,0.96661 0,0.4445 0,0.89606 0,0.45155 0,1.00189 v 4.28271 q 0,0.75495 0.317499,1.13595 0.324556,0.381 0.987777,0.381 0.261056,0 0.5715,-0.0847 0.310444,-0.0917 0.550333,-0.28222 l 0.09878,1.02305 q -0.141111,0.10584 -0.380999,0.1905 -0.239889,0.0776 -0.529166,0.11995 -0.289278,0.0494 -0.592667,0.0494 z m -3.520719,-6.23005 v -0.92428 h 4.952996 v 0.92428 q -0.705555,0 -1.425221,0 -0.712611,0 -1.389944,0 h -0.479777 z m 9.711777,6.23005 q -1.255888,0 -2.067276,-0.47978 -0.811389,-0.47978 -1.2065,-1.31233 -0.39511,-0.83256 -0.39511,-1.905 0,-1.05833 0.388055,-1.87678 0.388055,-0.81844 1.114777,-1.27705 0.726721,-0.46567 1.735665,-0.46567 0.888999,0 1.523999,0.34572 0.642055,0.34573 0.987777,1.016 0.345722,0.66322 0.345722,1.64395 0,0.26105 -0.01411,0.47272 -0.0071,0.20461 -0.04233,0.41628 l -1.023055,-0.51506 q 0.01411,-0.11289 0.01411,-0.21167 0.0071,-0.10583 0.0071,-0.20461 0,-0.99483 -0.493888,-1.50989 -0.493889,-0.52211 -1.291166,-0.52211 -0.642055,0 -1.107721,0.33161 -0.458611,0.32456 -0.712611,0.90312 -0.253999,0.57855 -0.253999,1.31938 v 0.16228 q 0,0.81844 0.282222,1.41111 0.282222,0.59267 0.853721,0.91722 0.578555,0.3175 1.467554,0.3175 0.331611,0 0.6985,-0.0494 0.373944,-0.0564 0.733777,-0.16933 0.366889,-0.11289 0.6985,-0.29633 l 0.04939,1.05127 q -0.26811,0.14817 -0.620888,0.26106 -0.352777,0.10583 -0.77611,0.16228 -0.423333,0.0635 -0.896055,0.0635 z m -3.182053,-3.42194 v -0.83256 l 4.840107,-0.0423 0.712611,0.26811 v 0.60678 z m 7.464772,3.26671 q 0,-0.78316 0,-1.50283 0,-0.71966 0,-1.5875 v -0.70555 q 0,-0.77611 0,-1.5875 0,-0.81139 0,-1.61572 l 1.015999,-0.0706 0.03528,1.28411 h 0.127 q 0.218722,-0.31044 0.550332,-0.62794 0.338667,-0.32456 0.797278,-0.53622 0.45861,-0.21872 1.051277,-0.21872 0.860777,0 1.319387,0.43038 0.465667,0.42334 0.606778,1.22061 l 0.07055,0.0423 q 0.02822,0.1905 0.04233,0.39511 0.02117,0.19755 0.02117,0.41628 0,0.45861 0,0.81138 0,0.35278 0,0.762 0,0.83256 0,1.57339 0,0.73378 0,1.51694 h -1.164166 q 0,-0.78316 0,-1.50988 0,-0.73378 0,-1.53106 v -1.32644 q 0,-0.83961 -0.282222,-1.27 -0.282222,-0.43039 -1.023054,-0.43039 -0.451556,0 -0.818444,0.19756 -0.359833,0.1905 -0.656166,0.51505 -0.289278,0.3175 -0.529167,0.6985 v 1.61572 q 0,0.8255 0,1.54517 0,0.71261 0,1.49577 z m 8.889993,0 q 0,-0.78316 0,-1.50988 0,-0.73378 0,-1.53106 v -1.32644 q 0,-0.83961 -0.282222,-1.27 -0.282222,-0.43039 -1.023055,-0.43039 -0.4445,0 -0.811388,0.1905 -0.359833,0.1905 -0.663222,0.51506 -0.296333,0.3175 -0.529166,0.70555 l -0.169333,-1.10066 h 0.126999 q 0.239889,-0.32456 0.585611,-0.64911 0.352778,-0.33162 0.818444,-0.54328 0.465666,-0.21872 1.058332,-0.21872 1.100666,0 1.573388,0.65616 0.479778,0.65617 0.479778,1.84856 0,0.45861 0,0.81138 0,0.35278 0,0.762 0,0.83256 0,1.57339 0,0.73378 0,1.51694 z m 3.421934,2.75167 q 0,-0.77611 0,-1.524 0,-0.74083 0,-1.60866 v -3.41489 q 0,-0.77611 0,-1.5875 0,-0.81139 0,-1.61572 l 1.058333,-0.0706 0.02822,0.91017 h 0.119945 q 0.211666,-0.27517 0.536221,-0.50094 0.324556,-0.23284 0.740833,-0.36689 0.423333,-0.14111 0.924277,-0.14111 0.959555,0 1.629832,0.47977 0.677333,0.47273 1.030111,1.29822 0.352777,0.8255 0.352777,1.86973 0,0.98072 -0.331611,1.82033 -0.324555,0.83255 -0.994832,1.34761 -0.663222,0.508 -1.66511,0.508 -0.465666,0 -0.860777,-0.127 -0.395111,-0.11995 -0.719666,-0.34573 -0.3175,-0.23283 -0.578556,-0.56444 H 75.34352 v 0.55033 q 0,0.8255 0,1.53811 0,0.71967 0,1.50284 z m 3.07622,-3.64066 q 0.754944,0 1.227666,-0.37395 0.479777,-0.37394 0.698499,-0.96661 0.225778,-0.59972 0.225778,-1.28411 0,-0.71261 -0.239889,-1.29822 -0.232833,-0.59267 -0.71261,-0.94544 -0.479778,-0.35278 -1.22061,-0.35278 -0.366889,0 -0.719666,0.11289 -0.352778,0.10583 -0.656167,0.32455 -0.296333,0.21167 -0.515055,0.52917 v 3.1115 q 0.211667,0.35983 0.486833,0.61383 0.282222,0.254 0.635,0.39511 0.352777,0.13406 0.790221,0.13406 z m 8.297318,1.04422 q -0.867833,0 -1.531055,-0.29634 -0.656166,-0.30338 -1.100665,-0.81844 -0.4445,-0.51506 -0.677333,-1.17828 -0.225778,-0.67027 -0.225778,-1.40405 0,-1.05128 0.423333,-1.86267 0.430389,-0.81844 1.213555,-1.29116 0.790221,-0.47272 1.876776,-0.47272 0.839611,0 1.488721,0.27516 0.649111,0.27517 1.100666,0.76906 0.451555,0.49389 0.684388,1.15711 0.232834,0.65616 0.232834,1.42522 0,1.03716 -0.423333,1.87677 -0.423333,0.83962 -1.206499,1.3335 -0.776111,0.48684 -1.85561,0.48684 z m 0,-1.016 q 0.769055,0 1.277054,-0.381 0.508,-0.381 0.762,-0.99483 0.254,-0.61384 0.254,-1.30528 0,-0.79022 -0.282222,-1.37583 -0.282222,-0.58561 -0.797278,-0.91017 -0.515055,-0.32455 -1.22061,-0.32455 -0.761999,0 -1.28411,0.34572 -0.522111,0.34572 -0.790221,0.93839 -0.261056,0.59266 -0.261056,1.32644 0,0.69144 0.254,1.30528 0.261055,0.61383 0.783166,0.99483 0.522111,0.381 1.305277,0.381 z m 5.404554,0.86077 q 0,-0.78316 0,-1.50283 0,-0.71966 0,-1.5875 v -0.70555 q 0,-0.77611 0,-1.5875 0,-0.81139 0,-1.61572 l 1.015999,-0.0706 0.03528,1.42522 h 0.119944 q 0.289278,-0.64205 0.663222,-0.96661 0.381,-0.33161 0.769055,-0.4445 0.388055,-0.11288 0.71261,-0.11288 0.197556,0 0.395111,0.0282 0.197556,0.0282 0.373944,0.0917 l -0.105833,1.17122 q -0.232833,-0.0423 -0.423333,-0.0705 -0.183444,-0.0282 -0.430388,-0.0282 -0.204611,0 -0.465667,0.0635 -0.254,0.0565 -0.529166,0.24695 -0.268111,0.18344 -0.522111,0.55739 -0.253999,0.36689 -0.444499,0.98072 v 1.08655 q 0,0.8255 0,1.54517 0,0.71261 0,1.49577 z m 7.133157,0.14112 q -0.627944,0 -1.100666,-0.23989 -0.472722,-0.24695 -0.740833,-0.6985 -0.261055,-0.45156 -0.261055,-1.08656 0,-0.5715 0.204611,-0.95955 0.204611,-0.39511 0.536222,-0.64206 0.33161,-0.24694 0.733777,-0.381 0.402166,-0.14111 0.804332,-0.21166 l 2.194279,-0.381 q 0.0282,-0.71261 -0.1905,-1.07245 -0.21167,-0.36689 -0.599724,-0.49389 -0.388055,-0.12699 -0.860777,-0.12699 -0.239889,0 -0.515055,0.0353 -0.275167,0.0353 -0.585611,0.11289 -0.303389,0.0706 -0.642055,0.18345 -0.338666,0.11288 -0.712611,0.27516 l -0.0635,-1.06539 q 0.254,-0.10583 0.5715,-0.20461 0.324555,-0.0988 0.684388,-0.17639 0.366889,-0.0847 0.747889,-0.127 0.380999,-0.0423 0.769055,-0.0423 0.783166,0 1.347611,0.24695 0.5715,0.24694 0.87489,0.77611 0.30339,0.52916 0.30339,1.38288 0,0.32456 0,0.8255 0,0.50095 0,0.9525 v 0.91017 q 0,0.47978 0,0.98072 0,0.49389 0,1.08655 h -1.05834 l -0.0635,-0.99483 h -0.11289 q -0.21872,0.28222 -0.550329,0.54328 -0.33161,0.26105 -0.769055,0.43039 -0.430388,0.16228 -0.945443,0.16228 z m 0.338666,-0.96661 q 0.373944,0 0.747888,-0.15523 0.373945,-0.15522 0.6985,-0.45861 0.331613,-0.31044 0.557393,-0.77611 l 0.007,-1.50989 q -0.11289,0.0635 -0.30339,0.127 -0.183442,0.0635 -0.557386,0.14817 -0.366889,0.0776 -1.023055,0.19756 -0.402166,0.0705 -0.712611,0.23283 -0.310444,0.15522 -0.493888,0.43039 -0.176389,0.26811 -0.176389,0.65616 0,0.60678 0.359833,0.86078 0.366889,0.24695 0.896055,0.24695 z m 5.404561,0.82549 q 0,-0.78316 0,-1.50283 0,-0.71966 0,-1.5875 v -0.70555 q 0,-0.77611 0,-1.5875 0,-0.81139 0,-1.61572 l 1.016,-0.0706 0.0353,1.42522 h 0.11995 q 0.28928,-0.64205 0.66322,-0.96661 0.381,-0.33161 0.76905,-0.4445 0.38806,-0.11288 0.71262,-0.11288 0.19755,0 0.39511,0.0282 0.19755,0.0282 0.37394,0.0917 l -0.10583,1.17122 q -0.23284,-0.0423 -0.42334,-0.0705 -0.18344,-0.0282 -0.43038,-0.0282 -0.20462,0 -0.46567,0.0635 -0.254,0.0565 -0.52917,0.24695 -0.26811,0.18344 -0.52211,0.55739 -0.254,0.36689 -0.4445,0.98072 v 1.08655 q 0,0.8255 0,1.54517 0,0.71261 0,1.49577 z m 6.31471,2.75167 q 0.28222,-0.69144 0.56445,-1.397 0.28222,-0.70555 0.56444,-1.397 v 0.29633 q -0.26811,-0.71966 -0.53622,-1.46049 -0.26811,-0.74084 -0.52917,-1.43934 l -0.46566,-1.27 q -0.27517,-0.75494 -0.5715,-1.54516 -0.28928,-0.79022 -0.56445,-1.53811 l 1.24883,-0.0494 q 0.30339,0.91017 0.59267,1.778 0.28928,0.86783 0.59267,1.77094 l 0.74083,2.25072 h 0.127 l 0.81139,-2.25777 q 0.3175,-0.88195 0.62794,-1.74978 0.31045,-0.86783 0.62795,-1.74272 h 1.23472 q -0.22578,0.56444 -0.43745,1.09361 -0.20461,0.52211 -0.45861,1.15711 -0.24694,0.635 -0.59266,1.50989 l -0.77611,1.9685 q -0.52917,1.34055 -0.90311,2.27894 -0.36689,0.93839 -0.67028,1.70039 z m 9.41916,-2.75167 q 0,-0.83961 0,-1.61572 0,-0.77611 0,-1.70744 v -3.37961 q 0,-0.93839 0,-1.72861 0,-0.79022 0,-1.62983 0.5715,0 1.47461,0 0.91017,0 2.08139,0 1.15005,0 1.89794,0.30339 0.75494,0.30339 1.12889,0.94544 0.37394,0.635 0.37394,1.62983 0,0.92428 -0.34572,1.64395 -0.33867,0.71261 -1.143,1.12183 -0.79728,0.40922 -2.18016,0.40922 -0.35278,0 -0.75495,0 -0.40216,0 -0.78316,0 -0.381,0 -0.66323,0 v -1.05833 h 1.96145 q 0.90311,0 1.47461,-0.21167 0.57855,-0.21166 0.85372,-0.67733 0.27517,-0.46567 0.27517,-1.22061 0,-0.62089 -0.20462,-0.98778 -0.19755,-0.36689 -0.52916,-0.54327 -0.32456,-0.18345 -0.70556,-0.23989 -0.381,-0.0564 -0.74083,-0.0564 h -2.83633 l 0.62089,-0.87489 q 0,0.84667 0,1.63689 0,0.78317 0,1.72156 v 3.19616 q 0,0.93133 0,1.70744 0,0.77611 0,1.61572 z m 8.763,0 q 0,-0.78316 0,-1.50283 0,-0.71966 0,-1.5875 v -3.87349 q 0,-0.889 0,-1.72861 0,-0.83961 0,-1.63689 l 1.16416,-0.14111 q 0,0.85372 0,1.7145 0,0.85372 0,1.79211 v 3.87349 q 0,0.86784 0,1.5875 0,0.71967 0,1.50283 z m 5.2211,0.14112 q -0.62794,0 -1.10067,-0.23989 -0.47272,-0.24695 -0.74083,-0.6985 -0.26105,-0.45156 -0.26105,-1.08656 0,-0.5715 0.20461,-0.95955 0.20461,-0.39511 0.53622,-0.64206 0.33161,-0.24694 0.73378,-0.381 0.40216,-0.14111 0.80433,-0.21166 l 2.19427,-0.381 q 0.0282,-0.71261 -0.1905,-1.07245 -0.21166,-0.36689 -0.59972,-0.49389 -0.38805,-0.12699 -0.86077,-0.12699 -0.23989,0 -0.51506,0.0353 -0.27517,0.0353 -0.58561,0.11289 -0.30339,0.0706 -0.64206,0.18345 -0.33866,0.11288 -0.71261,0.27516 l -0.0635,-1.06539 q 0.254,-0.10583 0.5715,-0.20461 0.32456,-0.0988 0.68439,-0.17639 0.36689,-0.0847 0.74789,-0.127 0.381,-0.0423 0.76906,-0.0423 0.78316,0 1.34761,0.24695 0.5715,0.24694 0.87488,0.77611 0.30339,0.52916 0.30339,1.38288 0,0.32456 0,0.8255 0,0.50095 0,0.9525 v 0.91017 q 0,0.47978 0,0.98072 0,0.49389 0,1.08655 h -1.05833 l -0.0635,-0.99483 h -0.11289 q -0.21872,0.28222 -0.55033,0.54328 -0.33161,0.26105 -0.76906,0.43039 -0.43039,0.16228 -0.94544,0.16228 z m 0.33867,-0.96661 q 0.37394,0 0.74788,-0.15523 0.37395,-0.15522 0.6985,-0.45861 0.33161,-0.31044 0.55739,-0.77611 l 0.007,-1.50989 q -0.11289,0.0635 -0.30339,0.127 -0.18345,0.0635 -0.55739,0.14817 -0.36689,0.0776 -1.02305,0.19756 -0.40217,0.0705 -0.71261,0.23283 -0.31045,0.15522 -0.49389,0.43039 -0.17639,0.26811 -0.17639,0.65616 0,0.60678 0.35983,0.86078 0.36689,0.24695 0.89606,0.24695 z m 5.92148,3.57716 q 0.28222,-0.69144 0.56444,-1.397 0.28222,-0.70555 0.56445,-1.397 v 0.29633 q -0.26811,-0.71966 -0.53623,-1.46049 -0.26811,-0.74084 -0.52916,-1.43934 l -0.46567,-1.27 q -0.27516,-0.75494 -0.5715,-1.54516 -0.28927,-0.79022 -0.56444,-1.53811 l 1.24883,-0.0494 q 0.30339,0.91017 0.59267,1.778 0.28927,0.86783 0.59266,1.77094 l 0.74084,2.25072 h 0.127 l 0.81138,-2.25777 q 0.3175,-0.88195 0.62795,-1.74978 0.31044,-0.86783 0.62794,-1.74272 h 1.23472 q -0.22577,0.56444 -0.43744,1.09361 -0.20461,0.52211 -0.45861,1.15711 -0.24695,0.635 -0.59267,1.50989 l -0.77611,1.9685 q -0.52916,1.34055 -0.90311,2.27894 -0.36689,0.93839 -0.67028,1.70039 z m 8.67498,0.11289 q -0.78317,0 -1.30528,-0.14111 -0.52211,-0.14111 -0.8255,-0.381 -0.30339,-0.23989 -0.43744,-0.53622 -0.127,-0.28928 -0.127,-0.59267 0,-0.47272 0.23283,-0.79728 0.23283,-0.3175 0.54328,-0.50094 0.31044,-0.18345 0.54327,-0.254 v -0.0988 q -0.11994,-0.0353 -0.28927,-0.14817 -0.16934,-0.11994 -0.30339,-0.33161 -0.13406,-0.21166 -0.13406,-0.53622 0,-0.24694 0.0917,-0.45861 0.0988,-0.21167 0.29634,-0.37394 0.19755,-0.16228 0.48683,-0.28223 v -0.10583 q -0.16228,-0.0564 -0.41628,-0.21167 -0.254,-0.15522 -0.51505,-0.41627 -0.254,-0.26811 -0.43039,-0.65617 -0.17639,-0.38805 -0.17639,-0.91722 0,-0.68439 0.33161,-1.19944 0.33867,-0.51506 0.9525,-0.79728 0.62089,-0.28928 1.45344,-0.28928 0.33867,0 0.58561,0.0353 0.254,0.0353 0.52212,0.0776 0.26811,0.0353 0.65616,0.0353 h 2.18017 v 0.87489 q -0.6985,0 -1.36172,0 -0.66323,0 -1.3335,0 l 0.33161,-0.55034 q 0.62089,0.29634 0.889,0.79022 0.27516,0.48684 0.27516,1.10067 0,0.69144 -0.28222,1.17122 -0.28222,0.47272 -0.79728,0.76906 -0.51505,0.28927 -1.19944,0.4445 -0.74083,0.17639 -1.10067,0.32455 -0.35983,0.14111 -0.35983,0.43039 0,0.20461 0.14817,0.3175 0.14816,0.11289 0.46566,0.16228 0.32456,0.0494 0.85373,0.0494 h 0.30338 q 0.97367,0 1.59456,0.15522 0.62089,0.14817 0.91722,0.50094 0.30339,0.35278 0.30339,0.93839 0,0.60678 -0.3175,1.05833 -0.3175,0.45861 -0.84667,0.75495 -0.52916,0.29633 -1.15711,0.43744 -0.62089,0.14817 -1.24177,0.14817 z m 0.0988,-0.94545 q 0.77611,0 1.29823,-0.21872 0.52916,-0.21166 0.79022,-0.508 0.26105,-0.29633 0.26105,-0.55033 0,-0.26811 -0.15522,-0.4445 -0.15522,-0.17639 -0.57855,-0.26106 -0.42334,-0.0917 -1.22767,-0.0917 h -0.26106 q -0.45155,0.007 -0.87488,0.14817 -0.42334,0.14111 -0.6985,0.38805 -0.26811,0.254 -0.26811,0.58562 0,0.18344 0.0847,0.35277 0.0917,0.17639 0.28928,0.31045 0.20461,0.13405 0.52917,0.21166 0.33161,0.0776 0.81138,0.0776 z m -0.20461,-5.1576 q 0.26106,-0.0423 0.55739,-0.127 0.30339,-0.0917 0.56445,-0.254 0.26811,-0.16228 0.43744,-0.43039 0.16933,-0.26811 0.16933,-0.67733 0,-0.508 -0.26105,-0.8255 -0.26106,-0.3175 -0.64911,-0.46567 -0.381,-0.15522 -0.74084,-0.15522 -0.43038,0 -0.80433,0.15522 -0.37394,0.14817 -0.60678,0.45861 -0.23283,0.30339 -0.23283,0.76906 0,0.46566 0.22578,0.79022 0.23283,0.32455 0.58561,0.51505 0.35983,0.1905 0.75494,0.24695 z m 5.5245,3.23849 q 0,-0.78316 0,-1.50283 0,-0.71966 0,-1.5875 v -0.70555 q 0,-0.77611 0,-1.5875 0,-0.81139 0,-1.61572 l 1.016,-0.0706 0.0353,1.42522 h 0.11994 q 0.28928,-0.64205 0.66322,-0.96661 0.381,-0.33161 0.76906,-0.4445 0.38805,-0.11288 0.71261,-0.11288 0.19755,0 0.39511,0.0282 0.19755,0.0282 0.37394,0.0917 l -0.10583,1.17122 q -0.23283,-0.0423 -0.42333,-0.0705 -0.18345,-0.0282 -0.43039,-0.0282 -0.20461,0 -0.46567,0.0635 -0.254,0.0565 -0.52916,0.24695 -0.26812,0.18344 -0.52212,0.55739 -0.254,0.36689 -0.4445,0.98072 v 1.08655 q 0,0.8255 0,1.54517 0,0.71261 0,1.49577 z m 8.4206,0.15523 q -0.86783,0 -1.53106,-0.29634 -0.65616,-0.30338 -1.10066,-0.81844 -0.4445,-0.51506 -0.67733,-1.17828 -0.22578,-0.67027 -0.22578,-1.40405 0,-1.05128 0.42333,-1.86267 0.43039,-0.81844 1.21356,-1.29116 0.79022,-0.47272 1.87677,-0.47272 0.83961,0 1.48872,0.27516 0.64911,0.27517 1.10067,0.76906 0.45155,0.49389 0.68439,1.15711 0.23283,0.65616 0.23283,1.42522 0,1.03716 -0.42333,1.87677 -0.42334,0.83962 -1.2065,1.3335 -0.77611,0.48684 -1.85561,0.48684 z m 0,-1.016 q 0.76905,0 1.27705,-0.381 0.508,-0.381 0.762,-0.99483 0.254,-0.61384 0.254,-1.30528 0,-0.79022 -0.28222,-1.37583 -0.28222,-0.58561 -0.79728,-0.91017 -0.51505,-0.32455 -1.22061,-0.32455 -0.762,0 -1.28411,0.34572 -0.52211,0.34572 -0.79022,0.93839 -0.26105,0.59266 -0.26105,1.32644 0,0.69144 0.254,1.30528 0.26105,0.61383 0.78316,0.99483 0.52211,0.381 1.30528,0.381 z m 7.37305,1.016 q -1.11478,0 -1.62984,-0.64206 -0.51505,-0.64205 -0.51505,-1.86266 0,-0.46567 0,-0.80434 0,-0.34572 0,-0.67733 0,-0.62794 0,-1.15005 0,-0.52917 0,-1.016 0,-0.48684 0,-1.00189 l 1.16417,-0.0494 q 0,0.77611 0,1.524 0,0.74789 0,1.57339 v 1.32644 q 0,0.83256 0.30338,1.27 0.30339,0.43039 1.0795,0.43039 0.45156,0 0.8255,-0.1905 0.37395,-0.19756 0.68439,-0.51506 0.31045,-0.3175 0.56444,-0.70555 v -1.61572 q 0,-0.8255 0,-1.55222 0,-0.72673 0,-1.49578 h 1.16417 q 0,0.76905 0,1.50989 0,0.74083 0,1.65805 v 0.74083 q 0,0.86784 0,1.5875 0,0.71967 0,1.50283 h -1.016 l -0.0423,-1.23472 h -0.127 q -0.21872,0.3175 -0.5715,0.64206 -0.34572,0.3175 -0.81845,0.53622 -0.47272,0.21167 -1.06538,0.21167 z m 5.91256,-0.15523 q 0,-0.78316 0,-1.50283 0,-0.71966 0,-1.5875 v -0.70555 q 0,-0.77611 0,-1.5875 0,-0.81139 0,-1.61572 l 1.016,-0.0706 0.0353,1.29822 h 0.127 q 0.22578,-0.3175 0.57856,-0.64205 0.35278,-0.32456 0.83255,-0.53622 0.47978,-0.21872 1.10067,-0.21872 1.11478,0 1.62983,0.64205 0.51506,0.64206 0.51506,1.86267 0,0.45861 0,0.81138 0,0.35278 0,0.762 0,0.83256 0,1.57339 0,0.73378 0,1.51694 h -1.16417 q 0,-0.78316 0,-1.50988 0,-0.73378 0,-1.53106 v -1.32644 q 0,-0.83961 -0.30339,-1.27 -0.29633,-0.43039 -1.0795,-0.43039 -0.47272,0 -0.86077,0.1905 -0.38806,0.1905 -0.70556,0.51506 -0.31044,0.3175 -0.55739,0.70555 v 1.61572 q 0,0.8255 0,1.54517 0,0.71261 0,1.49577 z m 10.57627,0.15523 q -1.00189,0 -1.66511,-0.508 -0.66322,-0.51506 -0.99483,-1.34761 -0.33162,-0.83961 -0.33162,-1.82033 0,-1.04423 0.35278,-1.86973 0.35278,-0.82549 1.02306,-1.29822 0.67733,-0.47977 1.63688,-0.47977 0.48684,0 0.889,0.13405 0.40923,0.127 0.71967,0.34572 0.31044,0.21167 0.51506,0.47273 h 0.11994 v -0.74789 q 0,-0.889 0,-1.72156 0,-0.83961 0,-1.64394 l 1.16417,-0.14111 q 0,0.85372 0,1.7145 0,0.85372 0,1.79211 v 3.87349 q 0,0.86784 0,1.5875 0,0.71967 0,1.50283 h -1.016 l -0.0564,-0.95955 h -0.11289 q -0.27516,0.35983 -0.61383,0.60678 -0.33867,0.24694 -0.74789,0.37394 -0.40216,0.13406 -0.88194,0.13406 z m 0.35278,-1.04422 q 0.43744,0 0.79022,-0.13406 0.35277,-0.14111 0.62794,-0.39511 0.28222,-0.254 0.49389,-0.61383 v -3.1115 q -0.21872,-0.3175 -0.52211,-0.52917 -0.29633,-0.21872 -0.64911,-0.32455 -0.35278,-0.11289 -0.71967,-0.11289 -0.74083,0 -1.22061,0.35278 -0.47978,0.35277 -0.71966,0.94544 -0.23284,0.58561 -0.23284,1.29822 0,0.68439 0.22578,1.28411 0.22578,0.59267 0.6985,0.96661 0.47272,0.37395 1.22767,0.37395 z"
         id="text1"
         aria-label="Contemporary Playground" />
    </g>
  </g>
</svg>
